<mxfile host="app.diagrams.net" modified="2022-09-24T23:42:21.880Z" agent="5.0 (X11)" etag="0nDsKd4yvwTjfgKZWO5l" version="20.3.6" type="github">
  <diagram id="4_k5tPPSMsSBLtXXWDVP" name="Page-1">
    <mxGraphModel dx="1673" dy="928" grid="1" gridSize="10" guides="1" tooltips="1" connect="1" arrows="1" fold="1" page="1" pageScale="1" pageWidth="850" pageHeight="1100" math="0" shadow="0">
      <root>
        <mxCell id="0" />
        <mxCell id="1" parent="0" />
        <mxCell id="0I4RmEno-vJBk1Js3pme-3" value="" style="edgeStyle=orthogonalEdgeStyle;rounded=0;orthogonalLoop=1;jettySize=auto;html=1;fontSize=15;strokeWidth=2;" edge="1" parent="1" source="0I4RmEno-vJBk1Js3pme-1" target="0I4RmEno-vJBk1Js3pme-2">
          <mxGeometry relative="1" as="geometry" />
        </mxCell>
        <mxCell id="0I4RmEno-vJBk1Js3pme-1" value="&lt;font style=&quot;font-size: 15px;&quot;&gt;&lt;b&gt;START&lt;/b&gt;&lt;/font&gt;" style="ellipse;whiteSpace=wrap;html=1;strokeWidth=2;fillColor=#d5e8d4;strokeColor=#82b366;" vertex="1" parent="1">
          <mxGeometry x="320" y="120" width="160" height="80" as="geometry" />
        </mxCell>
        <mxCell id="0I4RmEno-vJBk1Js3pme-5" value="" style="edgeStyle=orthogonalEdgeStyle;rounded=0;orthogonalLoop=1;jettySize=auto;html=1;fontSize=15;strokeWidth=2;" edge="1" parent="1" source="0I4RmEno-vJBk1Js3pme-2" target="0I4RmEno-vJBk1Js3pme-4">
          <mxGeometry relative="1" as="geometry" />
        </mxCell>
        <mxCell id="0I4RmEno-vJBk1Js3pme-2" value="&lt;font style=&quot;font-size: 15px;&quot;&gt;&lt;b&gt;Enter a number&lt;br&gt;&lt;/b&gt;&lt;/font&gt;" style="shape=parallelogram;perimeter=parallelogramPerimeter;whiteSpace=wrap;html=1;fixedSize=1;strokeWidth=2;fillColor=#dae8fc;strokeColor=#6c8ebf;" vertex="1" parent="1">
          <mxGeometry x="320" y="280" width="160" height="80" as="geometry" />
        </mxCell>
        <mxCell id="0I4RmEno-vJBk1Js3pme-8" value="" style="edgeStyle=orthogonalEdgeStyle;rounded=0;orthogonalLoop=1;jettySize=auto;html=1;strokeWidth=2;fontSize=15;" edge="1" parent="1" source="0I4RmEno-vJBk1Js3pme-4" target="0I4RmEno-vJBk1Js3pme-7">
          <mxGeometry relative="1" as="geometry" />
        </mxCell>
        <mxCell id="0I4RmEno-vJBk1Js3pme-4" value="&lt;div&gt;&lt;font style=&quot;font-size: 15px;&quot;&gt;&lt;b&gt;&amp;nbsp;X = Number entered&lt;br&gt;&lt;/b&gt;&lt;/font&gt;&lt;/div&gt;&lt;div&gt;&lt;font style=&quot;font-size: 15px;&quot;&gt;&lt;b&gt;Y&lt;/b&gt;&lt;/font&gt;&lt;/div&gt;" style="whiteSpace=wrap;html=1;strokeWidth=2;fillColor=#ffe6cc;strokeColor=#d79b00;" vertex="1" parent="1">
          <mxGeometry x="320" y="440" width="160" height="80" as="geometry" />
        </mxCell>
        <mxCell id="0I4RmEno-vJBk1Js3pme-10" value="" style="edgeStyle=orthogonalEdgeStyle;rounded=0;orthogonalLoop=1;jettySize=auto;html=1;strokeWidth=2;fontSize=15;" edge="1" parent="1" source="0I4RmEno-vJBk1Js3pme-7" target="0I4RmEno-vJBk1Js3pme-9">
          <mxGeometry relative="1" as="geometry" />
        </mxCell>
        <mxCell id="0I4RmEno-vJBk1Js3pme-19" value="" style="edgeStyle=orthogonalEdgeStyle;rounded=0;orthogonalLoop=1;jettySize=auto;html=1;strokeWidth=2;fontSize=15;" edge="1" parent="1" source="0I4RmEno-vJBk1Js3pme-7" target="0I4RmEno-vJBk1Js3pme-18">
          <mxGeometry relative="1" as="geometry" />
        </mxCell>
        <mxCell id="0I4RmEno-vJBk1Js3pme-7" value="&lt;font style=&quot;font-size: 14px;&quot;&gt;&lt;b&gt;IF X &amp;lt; 0&lt;/b&gt;&lt;/font&gt;" style="rhombus;whiteSpace=wrap;html=1;fillColor=#a0522d;strokeColor=#6D1F00;strokeWidth=2;fontColor=#ffffff;" vertex="1" parent="1">
          <mxGeometry x="320" y="600" width="160" height="120" as="geometry" />
        </mxCell>
        <mxCell id="0I4RmEno-vJBk1Js3pme-9" value="&lt;div&gt;&lt;font style=&quot;font-size: 15px;&quot;&gt;&lt;b&gt;&lt;font style=&quot;font-size: 15px;&quot;&gt;Store X inside Y&lt;/font&gt;&lt;/b&gt;&lt;/font&gt;&lt;/div&gt;&lt;div&gt;&lt;font style=&quot;font-size: 15px;&quot;&gt;&lt;b&gt;&lt;font style=&quot;font-size: 15px;&quot;&gt;Y = X&lt;br&gt;&lt;/font&gt;&lt;/b&gt;&lt;/font&gt;&lt;/div&gt;" style="whiteSpace=wrap;html=1;fillColor=#ffe6cc;strokeColor=#d79b00;strokeWidth=2;" vertex="1" parent="1">
          <mxGeometry x="320" y="800" width="160" height="80" as="geometry" />
        </mxCell>
        <mxCell id="0I4RmEno-vJBk1Js3pme-11" value="&lt;font style=&quot;font-size: 14px;&quot;&gt;&lt;b&gt;STOP&lt;/b&gt;&lt;/font&gt;" style="ellipse;whiteSpace=wrap;html=1;fillColor=#e51400;strokeColor=#B20000;strokeWidth=2;fontColor=#ffffff;" vertex="1" parent="1">
          <mxGeometry x="560" y="800" width="160" height="80" as="geometry" />
        </mxCell>
        <mxCell id="0I4RmEno-vJBk1Js3pme-13" value="&lt;b&gt;TRUE&lt;/b&gt;" style="text;html=1;align=center;verticalAlign=middle;resizable=0;points=[];autosize=1;strokeColor=none;fillColor=none;fontSize=15;" vertex="1" parent="1">
          <mxGeometry x="490" y="660" width="60" height="30" as="geometry" />
        </mxCell>
        <mxCell id="0I4RmEno-vJBk1Js3pme-14" value="&lt;b&gt;FALSE&lt;/b&gt;" style="text;html=1;align=center;verticalAlign=middle;resizable=0;points=[];autosize=1;strokeColor=none;fillColor=none;fontSize=15;" vertex="1" parent="1">
          <mxGeometry x="410" y="740" width="70" height="30" as="geometry" />
        </mxCell>
        <mxCell id="0I4RmEno-vJBk1Js3pme-18" value="&lt;b&gt;&lt;font style=&quot;font-size: 15px;&quot;&gt;Print Y&lt;br&gt;&lt;/font&gt;&lt;/b&gt;" style="shape=parallelogram;perimeter=parallelogramPerimeter;whiteSpace=wrap;html=1;fixedSize=1;fillColor=#dae8fc;strokeColor=#6c8ebf;strokeWidth=2;" vertex="1" parent="1">
          <mxGeometry x="560" y="620" width="160" height="80" as="geometry" />
        </mxCell>
        <mxCell id="0I4RmEno-vJBk1Js3pme-20" value="" style="endArrow=classic;html=1;rounded=0;strokeWidth=2;fontSize=15;entryX=0.5;entryY=0;entryDx=0;entryDy=0;exitX=0.5;exitY=1;exitDx=0;exitDy=0;" edge="1" parent="1" source="0I4RmEno-vJBk1Js3pme-18" target="0I4RmEno-vJBk1Js3pme-11">
          <mxGeometry width="50" height="50" relative="1" as="geometry">
            <mxPoint x="590" y="770" as="sourcePoint" />
            <mxPoint x="640" y="720" as="targetPoint" />
          </mxGeometry>
        </mxCell>
        <mxCell id="0I4RmEno-vJBk1Js3pme-21" value="" style="endArrow=classic;html=1;rounded=0;strokeWidth=2;fontSize=15;entryX=0;entryY=0.5;entryDx=0;entryDy=0;exitX=0;exitY=0.5;exitDx=0;exitDy=0;" edge="1" parent="1" source="0I4RmEno-vJBk1Js3pme-9" target="0I4RmEno-vJBk1Js3pme-2">
          <mxGeometry width="50" height="50" relative="1" as="geometry">
            <mxPoint x="320" y="810" as="sourcePoint" />
            <mxPoint x="370" y="760" as="targetPoint" />
            <Array as="points">
              <mxPoint x="240" y="840" />
              <mxPoint x="240" y="320" />
            </Array>
          </mxGeometry>
        </mxCell>
        <mxCell id="0I4RmEno-vJBk1Js3pme-23" value="&lt;h1&gt;Flowchart Q2&lt;br&gt;&lt;/h1&gt;" style="text;html=1;align=center;verticalAlign=middle;resizable=0;points=[];autosize=1;strokeColor=none;fillColor=none;fontSize=15;" vertex="1" parent="1">
          <mxGeometry x="310" y="30" width="210" height="90" as="geometry" />
        </mxCell>
      </root>
    </mxGraphModel>
  </diagram>
</mxfile>
